<?xml version="1.0" encoding="UTF-8"?>
<!DOCTYPE svg PUBLIC "-//W3C//DTD SVG 1.1//EN" "http://www.w3.org/Graphics/SVG/1.1/DTD/svg11.dtd">
<svg xmlns="http://www.w3.org/2000/svg" version="1.1" width="361px" height="342px" style="shape-rendering:geometricPrecision; text-rendering:geometricPrecision; image-rendering:optimizeQuality; fill-rule:evenodd; clip-rule:evenodd" xmlns:xlink="http://www.w3.org/1999/xlink">
<g><path style="opacity:0.993" fill="#fefffe" d="M 80.5,52.5 C 146.501,52.3333 212.501,52.5 278.5,53C 292.667,55.1667 300.833,63.3333 303,77.5C 303.667,127.5 303.667,177.5 303,227.5C 300.833,241.667 292.667,249.833 278.5,252C 261.833,252.333 245.167,252.667 228.5,253C 212.623,269.378 196.289,285.212 179.5,300.5C 178.186,299.687 177.019,298.687 176,297.5C 175.667,283.167 175.333,268.833 175,254.5C 174.5,254 174,253.5 173.5,253C 142.5,252.667 111.5,252.333 80.5,252C 66.3333,249.833 58.1667,241.667 56,227.5C 55.3333,177.5 55.3333,127.5 56,77.5C 57.4184,69.4851 61.2517,62.9851 67.5,58C 71.7168,55.5488 76.0501,53.7155 80.5,52.5 Z M 77.5,60.5 C 145.501,60.3333 213.501,60.5 281.5,61C 288,63.5 292.5,68 295,74.5C 295.667,126.5 295.667,178.5 295,230.5C 292.5,237 288,241.5 281.5,244C 263.167,244.333 244.833,244.667 226.5,245C 214.196,256.304 202.196,267.97 190.5,280C 187.975,280.896 185.808,280.396 184,278.5C 183.667,268.167 183.333,257.833 183,247.5C 182.5,246.333 181.667,245.5 180.5,245C 146.167,244.667 111.833,244.333 77.5,244C 71,241.5 66.5,237 64,230.5C 63.3333,178.5 63.3333,126.5 64,74.5C 66.6873,67.981 71.1873,63.3143 77.5,60.5 Z M 176.5,120.5 C 179.365,120.055 181.865,120.722 184,122.5C 189.527,134.082 194.86,145.749 200,157.5C 200.896,160.025 200.396,162.192 198.5,164C 185.833,164.667 173.167,164.667 160.5,164C 160,163.5 159.5,163 159,162.5C 158.429,158.955 159.096,155.622 161,152.5C 165.924,141.654 171.091,130.987 176.5,120.5 Z"/></g>
<g><path style="opacity:0.973" fill="#fefffe" d="M 178.5,100.5 C 181.091,101.254 182.924,102.921 184,105.5C 198.833,137.833 213.667,170.167 228.5,202.5C 226.999,203.752 225.332,204.752 223.5,205.5C 217.722,194.78 212.056,183.947 206.5,173C 188.5,172.333 170.5,172.333 152.5,173C 146.949,183.269 141.782,193.769 137,204.5C 134.595,205.245 132.428,204.578 130.5,202.5C 146,168.171 162,134.171 178.5,100.5 Z M 176.5,120.5 C 171.091,130.987 165.924,141.654 161,152.5C 159.096,155.622 158.429,158.955 159,162.5C 159.5,163 160,163.5 160.5,164C 173.167,164.667 185.833,164.667 198.5,164C 200.396,162.192 200.896,160.025 200,157.5C 194.86,145.749 189.527,134.082 184,122.5C 181.865,120.722 179.365,120.055 176.5,120.5 Z"/></g>
</svg>
