<?xml version="1.0" encoding="UTF-8"?>
<!DOCTYPE svg PUBLIC "-//W3C//DTD SVG 1.1//EN" "http://www.w3.org/Graphics/SVG/1.1/DTD/svg11.dtd">
<svg xmlns="http://www.w3.org/2000/svg" version="1.1" width="361px" height="342px" style="shape-rendering:geometricPrecision; text-rendering:geometricPrecision; image-rendering:optimizeQuality; fill-rule:evenodd; clip-rule:evenodd" xmlns:xlink="http://www.w3.org/1999/xlink">
<g><path style="opacity:1" fill="#fafafa" d="M 67.5,251.5 C 66.3646,249.787 64.698,249.12 62.5,249.5C 46.6003,243.082 36.767,231.415 33,214.5C 32.3333,168.833 32.3333,123.167 33,77.5C 38.034,55.8002 51.534,42.9668 73.5,39C 143.5,38.3333 213.5,38.3333 283.5,39C 305.466,42.9668 318.966,55.8002 324,77.5C 324.667,123.167 324.667,168.833 324,214.5C 319.612,234.554 307.446,247.054 287.5,252C 244.833,252.333 202.167,252.667 159.5,253C 137.5,273.667 115.5,294.333 93.5,315C 90.2828,317.726 86.9495,320.226 83.5,322.5C 80.0487,322.214 78.0487,320.381 77.5,317C 82.534,295.663 86.8673,274.163 90.5,252.5C 82.7777,252.767 75.111,252.434 67.5,251.5 Z M 92.5,300.5 C 95.9977,282.184 99.1643,263.85 102,245.5C 101.167,244.667 100.333,243.833 99.5,243C 90.5,242.667 81.5,242.333 72.5,242C 62.4859,239.796 54.4859,234.629 48.5,226.5C 48.573,224.973 47.9063,223.973 46.5,223.5C 44.8359,219.671 43.6693,215.671 43,211.5C 42.3333,167.833 42.3333,124.167 43,80.5C 47.3229,61.5092 59.1563,51.0092 78.5,49C 145.167,48.3333 211.833,48.3333 278.5,49C 297.403,50.9004 309.236,61.0671 314,79.5C 314.667,123.5 314.667,167.5 314,211.5C 310.617,227.883 300.784,238.05 284.5,242C 241.5,242.333 198.5,242.667 155.5,243C 134.33,262.004 113.33,281.171 92.5,300.5 Z"/></g>
<g><path style="opacity:1" fill="#f8f8f8" d="M 148.5,106.5 C 149.906,106.027 150.573,105.027 150.5,103.5C 162.66,88.6854 177.66,85.1854 195.5,93C 211.784,103.847 216.95,118.681 211,137.5C 205.442,149.225 196.275,156.225 183.5,158.5C 183.666,166.507 183.5,174.507 183,182.5C 180.293,184.886 177.46,185.052 174.5,183C 173.348,172.577 173.181,162.077 174,151.5C 174.833,150.667 175.667,149.833 176.5,149C 192.572,148.26 201.572,139.926 203.5,124C 200.287,104.39 188.954,96.7237 169.5,101C 158.821,106.036 153.321,114.536 153,126.5C 150,130.5 147,130.5 144,126.5C 142.999,119.178 144.499,112.511 148.5,106.5 Z"/></g>
<g><path style="opacity:0.961" fill="#d5d5d5" d="M 150.5,103.5 C 150.573,105.027 149.906,106.027 148.5,106.5C 148.427,104.973 149.094,103.973 150.5,103.5 Z"/></g>
<g><path style="opacity:1" fill="#dedede" d="M 181.5,199.5 C 179.5,199.5 177.5,199.5 175.5,199.5C 177.5,196.833 179.5,196.833 181.5,199.5 Z"/></g>
<g><path style="opacity:1" fill="#f2f2f2" d="M 175.5,199.5 C 177.5,199.5 179.5,199.5 181.5,199.5C 184.653,203.673 183.653,206.673 178.5,208.5C 173.347,206.673 172.347,203.673 175.5,199.5 Z"/></g>
<g><path style="opacity:0.925" fill="#d3d3d3" d="M 46.5,223.5 C 47.9063,223.973 48.573,224.973 48.5,226.5C 47.0937,226.027 46.427,225.027 46.5,223.5 Z"/></g>
<g><path style="opacity:0.992" fill="#d4d4d4" d="M 62.5,249.5 C 64.698,249.12 66.3646,249.787 67.5,251.5C 65.597,251.204 63.9303,250.537 62.5,249.5 Z"/></g>
</svg>
